<?xml version="1.0" standalone="no"?>
<!DOCTYPE svg PUBLIC "-//W3C//DTD SVG 20010904//EN"
 "http://www.w3.org/TR/2001/REC-SVG-20010904/DTD/svg10.dtd">
<svg version="1.0" xmlns="http://www.w3.org/2000/svg"
 width="512.000000pt" height="512.000000pt" viewBox="0 0 512.000000 512.000000"
 preserveAspectRatio="xMidYMid meet">

<g transform="translate(0.000000,512.000000) scale(0.100000,-0.100000)"
fill="#000000" stroke="none">
<path d="M1725 4615 c-5 -2 -43 -9 -84 -15 -61 -10 -79 -18 -101 -42 -21 -23
-43 -32 -101 -44 -159 -32 -274 -115 -340 -246 -50 -98 -62 -173 -56 -343 4
-134 9 -167 45 -305 39 -152 106 -345 178 -511 l35 -83 -28 -21 c-15 -11 -34
-28 -43 -39 -28 -35 -81 -81 -113 -99 -36 -19 -158 -147 -142 -148 5 0 -3 -5
-20 -11 -39 -14 -116 -69 -110 -78 3 -4 -1 -8 -8 -7 -29 1 -47 -4 -47 -12 0
-8 21 -5 85 12 6 2 25 11 43 20 18 10 37 15 42 12 6 -3 7 1 4 10 -4 11 -2 14
9 9 10 -3 20 2 27 15 6 12 18 21 27 21 9 0 14 3 10 6 -7 7 25 32 121 95 34 23
62 45 62 51 0 5 4 7 8 4 5 -3 14 11 21 30 11 31 59 90 66 82 1 -2 25 -51 52
-109 45 -95 49 -108 36 -125 -21 -28 -11 -60 59 -202 172 -348 266 -469 465
-599 99 -65 185 -102 322 -140 141 -38 171 -64 205 -177 59 -191 168 -276 356
-276 130 0 225 39 415 168 173 119 273 157 375 145 47 -6 120 -37 120 -52 0
-5 -24 -27 -54 -49 -148 -112 -125 -306 48 -407 144 -84 370 -66 484 39 107
97 108 222 3 339 -109 121 -170 157 -270 157 -38 0 -52 5 -72 26 -63 68 -164
105 -284 105 -146 -1 -251 -42 -450 -179 -154 -105 -223 -136 -305 -136 -69 0
-98 11 -142 52 -38 35 -53 83 -39 125 20 59 57 84 173 117 200 56 292 100 439
212 144 109 224 215 345 460 42 84 51 97 69 92 16 -4 17 -3 5 5 -12 9 -13 15
-1 48 26 71 40 124 32 118 -5 -2 -11 4 -14 16 -6 23 39 129 55 129 6 0 5 -7
-3 -17 -13 -16 -12 -17 3 -5 9 8 22 11 28 7 5 -3 10 -2 10 3 0 6 -7 12 -15 16
-17 6 -21 46 -4 46 6 0 13 -9 16 -20 3 -11 9 -17 14 -14 12 7 11 0 -2 -30 -9
-19 -9 -29 0 -40 10 -12 9 -14 -8 -9 -13 3 -18 10 -14 21 5 10 3 13 -6 8 -7
-5 -10 -14 -7 -21 3 -8 0 -16 -7 -19 -7 -3 -3 -4 8 -1 11 2 27 0 35 -6 12 -9
11 -10 -5 -4 -20 6 -20 6 -1 -12 14 -14 20 -15 23 -5 4 10 9 9 24 -4 10 -9 16
-20 13 -25 -2 -4 14 -18 36 -31 29 -16 39 -28 36 -40 -2 -10 1 -21 6 -25 7 -3
8 -1 4 5 -15 24 39 7 57 -18 18 -24 19 -24 14 -3 -3 13 0 26 5 30 6 3 8 2 5
-4 -8 -12 106 -63 140 -63 9 0 25 -7 35 -17 19 -17 26 -5 7 14 -7 7 -4 10 12
9 12 0 24 5 26 11 3 9 -5 11 -29 8 -27 -4 -29 -3 -8 3 25 9 25 9 -10 24 -19 8
-64 43 -100 77 -36 35 -77 68 -91 74 -14 7 -67 51 -118 99 l-93 86 70 174
c191 471 246 768 187 999 -49 191 -199 329 -389 359 -54 9 -74 17 -95 39 -21
23 -42 31 -117 44 -113 21 -137 21 -179 1 -49 -23 -68 -67 -63 -147 3 -56 8
-71 32 -96 31 -32 93 -51 149 -45 18 1 58 6 89 9 35 4 67 14 83 27 33 26 89
21 167 -14 71 -33 124 -86 159 -162 70 -152 58 -348 -42 -660 -41 -129 -152
-413 -167 -428 -16 -16 -37 2 -84 77 -28 44 -62 84 -85 99 -60 40 -66 47 -111
126 -46 81 -86 129 -145 173 -45 34 -53 32 -150 -32 -119 -79 -113 -78 -142
-31 -14 23 -30 52 -35 64 -5 13 -28 46 -52 73 -24 27 -65 94 -92 149 -36 73
-58 107 -87 129 -22 17 -64 63 -94 103 -47 61 -60 72 -85 72 -22 0 -36 -9 -57
-36 -15 -20 -50 -64 -77 -98 -26 -33 -57 -81 -68 -106 -10 -24 -34 -62 -52
-85 -18 -22 -53 -71 -77 -110 -36 -59 -120 -179 -135 -194 -3 -3 -35 25 -72
62 -37 37 -78 69 -91 72 -36 7 -114 -56 -166 -133 -74 -111 -139 -190 -161
-196 -11 -3 -44 -35 -73 -71 -29 -36 -57 -63 -61 -60 -26 16 -147 369 -196
570 -35 143 -40 358 -11 442 36 104 142 191 263 215 47 9 57 9 73 -6 27 -25
82 -36 183 -37 101 0 132 11 166 61 21 31 23 43 18 99 -7 75 -25 107 -71 127
-32 13 -86 17 -110 9z m783 -600 c2 -16 -1 -45 -8 -65 -9 -28 -8 -47 4 -94 16
-59 16 -60 -11 -105 -16 -27 -27 -63 -28 -90 -3 -54 -16 -91 -49 -134 -27 -36
-66 -113 -43 -84 8 9 19 17 25 17 6 0 28 27 49 60 21 33 41 60 44 60 4 0 15
-12 24 -27 36 -54 15 -118 -81 -243 -23 -30 -40 -58 -37 -63 2 -4 23 9 46 28
l41 35 30 -52 c17 -29 30 -56 28 -60 -1 -5 2 -7 7 -5 13 3 71 -79 71 -102 0
-10 7 -24 15 -31 8 -7 12 -17 8 -23 -3 -6 -1 -7 5 -3 7 4 14 -3 18 -19 3 -14
10 -25 16 -25 5 0 6 -4 3 -10 -3 -5 5 -22 19 -37 14 -15 23 -29 21 -32 -3 -2
-13 7 -24 20 -10 13 -28 35 -40 49 l-21 25 12 -30 c14 -32 16 -35 54 -80 28
-33 74 -101 74 -110 0 -4 -6 -3 -12 1 -8 4 -10 3 -5 -2 5 -5 12 -10 15 -10 29
-6 52 -18 56 -31 3 -8 11 -11 17 -7 8 4 9 3 5 -4 -4 -7 -1 -12 7 -12 8 0 17
-7 21 -15 3 -8 1 -15 -3 -15 -5 0 -7 -9 -4 -20 3 -11 9 -17 14 -14 5 3 7 9 4
14 -3 5 -1 11 5 15 9 5 -22 60 -43 76 -11 8 -18 51 -6 44 5 -4 7 -11 4 -16 -4
-5 2 -6 11 -2 11 4 13 8 6 11 -7 2 -10 8 -6 13 3 5 0 9 -6 9 -6 0 -9 4 -6 8 2
4 -5 14 -17 22 -20 12 -21 12 -8 -4 8 -9 11 -20 7 -24 -11 -10 -53 46 -52 69
1 22 9 24 34 9 14 -9 13 -10 -7 -4 -16 4 -21 3 -17 -5 4 -6 13 -11 19 -11 16
0 77 -55 77 -70 0 -6 21 -31 47 -56 27 -25 40 -42 30 -39 -9 4 -17 10 -17 14
0 4 -12 13 -27 20 -27 12 -27 12 -10 -6 9 -11 15 -23 12 -26 -3 -4 -2 -5 1 -2
14 10 45 -17 40 -33 -4 -12 0 -10 13 5 l18 22 22 -25 c11 -13 30 -24 42 -24
11 0 18 -4 14 -9 -3 -5 3 -11 12 -13 11 -2 14 -6 8 -10 -12 -8 -97 46 -88 56
4 3 1 6 -5 6 -16 0 -28 -23 -14 -28 7 -2 18 -9 25 -16 33 -33 137 -86 137 -69
0 9 -29 33 -42 34 -9 0 -10 2 -1 6 7 2 28 -7 47 -22 19 -15 40 -24 46 -20 5 3
10 -2 11 -12 0 -12 2 -13 6 -5 6 16 -24 47 -55 56 -12 4 -27 16 -32 27 -6 10
-17 19 -24 19 -8 0 -20 8 -27 18 -13 15 -12 16 4 3 15 -12 17 -11 17 2 0 9 -8
21 -17 26 -10 6 -14 11 -10 11 4 0 21 -10 37 -22 16 -12 37 -22 47 -23 17 -1
42 -13 84 -40 57 -35 64 -39 52 -23 -7 8 -9 19 -5 23 4 5 1 5 -7 0 -9 -5 -12
-4 -7 3 3 5 -6 20 -21 32 -28 21 -28 21 14 -1 23 -12 40 -27 39 -33 -2 -6 -1
-7 2 -3 2 5 13 1 23 -9 10 -9 16 -21 12 -27 -3 -5 -1 -7 5 -3 27 17 18 -20
-31 -115 -72 -144 -118 -208 -198 -283 -78 -72 -167 -122 -289 -162 -75 -24
-104 -28 -246 -32 -183 -5 -260 7 -393 58 -106 41 -183 94 -268 183 -71 75
-131 183 -243 437 -46 105 -73 140 -105 140 -19 0 -33 23 -89 143 -36 79 -66
146 -66 149 0 3 10 4 22 0 15 -4 19 -2 14 7 -5 8 0 14 13 18 12 3 21 9 21 13
0 12 54 64 81 78 14 8 44 41 67 75 23 34 60 82 82 107 22 24 40 48 40 52 0 5
17 31 39 57 25 33 42 46 51 41 10 -6 10 -12 -2 -29 -18 -25 -13 -85 8 -116 20
-28 17 -106 -6 -165 -11 -28 -20 -59 -20 -68 0 -10 -14 -31 -31 -48 -31 -29
-69 -93 -69 -115 0 -7 13 3 30 22 52 60 93 99 103 99 9 0 89 -102 91 -115 1
-8 6 -18 11 -22 4 -4 5 -2 1 5 -4 6 -5 12 -2 12 3 0 13 -17 22 -37 17 -37 39
-61 103 -113 38 -31 50 -57 17 -34 -14 8 -27 22 -30 31 -4 9 -9 13 -13 10 -3
-4 -12 1 -19 11 -8 10 -13 12 -14 5 0 -7 17 -32 38 -55 20 -24 28 -36 17 -28
-11 8 -29 26 -39 39 -11 13 -35 37 -53 54 -18 16 -35 38 -38 48 -4 11 -12 16
-20 12 -8 -3 -13 -8 -10 -13 2 -4 -15 -27 -38 -51 -49 -50 -85 -80 -73 -61 4
6 5 12 1 12 -9 0 -70 -72 -70 -84 0 -6 -7 -11 -15 -12 -24 -1 -50 -15 -44 -25
3 -5 0 -9 -7 -9 -7 0 -9 -3 -6 -6 4 -4 13 -1 22 6 13 11 14 10 10 -2 -4 -10 1
-17 15 -21 15 -4 32 6 64 36 23 23 48 52 55 65 7 12 17 20 23 16 7 -4 8 -3 4
4 -4 6 4 16 16 23 13 7 26 17 30 23 4 6 9 8 12 5 3 -3 -8 -21 -24 -39 -17 -19
-30 -37 -30 -41 0 -4 -9 -11 -20 -14 -11 -4 -18 -11 -14 -16 4 -6 11 -6 20 2
8 6 14 8 14 5 0 -4 11 6 24 21 13 15 28 25 31 21 8 -8 -55 -84 -66 -81 -4 1
-21 -13 -38 -32 -34 -39 -46 -44 -38 -16 4 17 2 18 -12 9 -22 -13 -24 -38 -3
-30 10 3 13 1 8 -6 -5 -9 0 -9 20 -2 18 7 31 7 37 1 7 -7 5 -12 -6 -17 -9 -3
-17 -10 -17 -16 0 -13 39 0 73 24 16 11 35 17 43 14 9 -4 18 3 24 18 4 13 17
26 27 30 17 6 17 5 1 -8 -22 -17 -23 -27 -2 -19 14 5 14 3 -2 -15 -10 -12 -19
-31 -21 -43 -4 -23 -33 -50 -45 -43 -5 3 -8 -1 -8 -10 0 -8 -17 -32 -37 -54
-48 -51 -53 -68 -14 -47 16 8 33 20 37 26 9 15 74 42 82 34 3 -3 -4 -8 -17
-12 -17 -4 -20 -8 -9 -15 9 -7 6 -8 -10 -5 -23 6 -24 5 -5 -15 14 -17 15 -20
3 -16 -11 4 -16 0 -16 -13 0 -16 2 -17 16 -4 9 8 20 12 25 8 4 -5 5 -3 2 3 -4
7 0 15 9 18 8 3 13 10 9 16 -3 5 9 8 32 6 20 -1 39 -8 41 -14 2 -6 10 -8 18
-5 7 3 11 9 8 14 -7 12 1 11 41 -5 19 -8 35 -20 35 -25 0 -6 12 -11 26 -11 14
0 23 -3 21 -7 -3 -5 6 -9 19 -9 13 -1 32 -5 42 -9 35 -16 87 -27 78 -17 -4 4
-11 7 -14 7 -34 3 -52 18 -48 41 4 19 0 24 -15 24 -22 0 -24 11 -7 28 9 9 9
12 0 12 -7 0 -13 -1 -14 -2 -2 -2 -25 14 -52 35 -27 20 -55 37 -62 37 -7 0
-16 4 -19 10 -3 5 0 7 8 4 8 -3 18 1 23 8 4 7 4 10 -1 6 -10 -9 -45 9 -45 24
0 6 8 4 18 -5 10 -10 21 -14 25 -11 3 4 -4 15 -16 25 -16 13 -18 18 -7 19 18
0 45 -39 41 -59 -2 -12 0 -13 12 -3 12 10 18 10 31 -3 9 -9 16 -14 16 -11 0 3
11 -4 25 -16 13 -11 21 -26 18 -31 -4 -6 0 -8 11 -4 10 4 23 7 29 8 7 0 2 4
-11 10 -13 5 -21 13 -18 18 3 5 -2 15 -12 22 -15 13 -16 12 -3 -3 7 -10 9 -18
5 -18 -5 0 -14 8 -20 18 -10 15 -8 18 7 19 11 1 23 -7 29 -17 5 -10 19 -22 30
-25 11 -4 18 -11 15 -16 -3 -5 1 -6 9 -3 9 3 16 1 16 -5 0 -6 7 -11 15 -11 9
0 27 -7 40 -16 14 -9 25 -13 25 -10 0 4 9 2 20 -4 11 -6 18 -15 15 -20 -3 -4
7 -5 22 -1 16 4 35 4 43 -1 13 -7 42 -18 75 -29 27 -8 144 -69 149 -77 3 -4
21 -7 41 -6 20 2 33 0 31 -5 -3 -4 1 -8 8 -8 8 0 12 7 8 15 -4 11 -1 13 8 7 8
-5 11 -4 6 3 -8 13 -46 11 -46 -3 -1 -5 -8 2 -16 18 -17 32 -24 35 -19 8 2
-14 -1 -18 -10 -15 -8 3 -11 12 -8 20 3 10 -9 21 -40 34 -24 11 -50 27 -57 35
-7 9 -19 14 -26 11 -7 -3 -16 -1 -20 5 -3 6 -13 8 -21 5 -10 -4 -13 -2 -10 8
3 8 -2 20 -11 28 -16 12 -16 11 -2 -6 13 -17 13 -18 -5 -14 -11 2 -19 10 -17
17 1 7 -2 10 -7 6 -6 -3 -19 3 -30 14 -11 11 -22 17 -25 13 -4 -3 -19 7 -34
21 -16 15 -31 24 -35 20 -4 -3 -7 -1 -7 5 0 7 -6 12 -13 12 -8 0 -23 10 -35
23 -17 18 -19 26 -10 35 17 17 31 15 24 -4 -3 -9 -2 -12 4 -9 11 7 75 -42 75
-56 0 -4 4 -11 9 -16 5 -5 6 -3 2 5 -11 18 11 15 32 -5 18 -19 54 -24 69 -10
4 5 4 7 -2 5 -10 -3 -58 40 -85 77 -14 20 -14 20 7 2 12 -10 24 -14 27 -9 3 6
-1 13 -10 16 -9 4 -15 9 -12 12 3 2 30 -9 60 -25 30 -17 58 -28 62 -24 3 3 6
2 6 -4 0 -6 -7 -14 -16 -17 -8 -3 -12 -2 -9 4 3 6 1 10 -4 10 -23 0 -10 -26
19 -38 17 -8 30 -20 30 -27 0 -7 12 -16 26 -19 14 -4 38 -16 53 -27 14 -11 41
-20 58 -22 17 -1 29 -5 27 -9 -2 -3 9 -11 25 -16 37 -13 33 8 -4 28 -13 7 -26
19 -29 26 -8 21 0 17 39 -17 25 -23 45 -31 72 -31 21 0 55 -5 76 -10 29 -7 43
-6 55 4 13 11 15 11 9 -4 -4 -12 -2 -15 9 -11 8 3 22 -1 32 -8 15 -13 16 -12
3 4 -8 9 -11 21 -7 24 4 4 11 1 16 -7 8 -13 10 -13 10 -1 0 11 4 9 15 -5 8
-10 15 -16 15 -11 0 4 16 0 37 -8 20 -8 38 -14 40 -11 5 5 -55 29 -73 29 -7 0
-16 7 -18 14 -3 8 -10 12 -15 9 -5 -3 -14 1 -21 9 -7 8 -18 15 -26 15 -7 0
-15 9 -19 19 -4 13 -12 18 -22 14 -12 -5 -14 -3 -8 7 5 8 4 11 -1 7 -14 -8
-111 56 -156 102 -21 22 -38 37 -38 33 0 -3 -7 4 -16 16 -8 12 -21 19 -27 16
-7 -4 -9 -4 -5 1 4 4 -3 16 -16 26 -28 22 -41 25 -29 7 4 -7 -15 3 -42 23 -28
19 -50 40 -49 45 1 5 -6 14 -14 20 -8 6 -12 16 -8 22 4 7 2 10 -7 6 -8 -3 -18
5 -25 18 -10 20 -11 21 -9 3 1 -12 -3 -19 -11 -17 -8 1 -11 -2 -7 -8 3 -6 11
-8 16 -5 5 4 9 -1 9 -9 0 -9 5 -16 11 -16 6 0 8 -9 4 -21 -4 -12 -3 -19 2 -16
5 3 15 2 23 -3 12 -7 12 -12 3 -21 -10 -10 -30 5 -93 69 -51 51 -78 87 -74 95
4 6 4 9 0 5 -4 -3 -24 9 -43 29 -20 19 -59 49 -87 67 -42 28 -59 48 -93 114
-24 45 -43 89 -43 99 0 10 -29 47 -65 81 -36 35 -65 67 -65 72 0 4 15 21 33
37 44 39 72 82 133 200 20 40 40 72 43 71 21 -2 32 9 61 65 19 34 47 81 64
104 17 24 47 67 66 98 38 59 53 65 58 20z m107 -144 c3 -5 2 -12 -3 -15 -5 -3
-9 1 -9 9 0 17 3 19 12 6z m75 -36 c0 -8 -2 -15 -4 -15 -2 0 -6 7 -10 15 -3 8
-1 15 4 15 6 0 10 -7 10 -15z m51 -187 c11 -21 11 -22 -4 -9 -10 7 -17 17 -17
22 0 15 9 10 21 -13z m-141 -30 c0 -4 -4 -8 -9 -8 -6 0 -12 4 -15 8 -3 5 1 9
9 9 8 0 15 -4 15 -9z m592 -93 c8 -19 8 -31 -1 -51 -28 -62 -16 -188 22 -226
15 -15 31 -49 29 -60 -1 -5 3 -8 10 -8 6 0 8 -3 5 -6 -3 -4 5 -15 18 -26 14
-11 23 -24 20 -29 -4 -5 -1 -9 4 -9 6 0 11 -5 11 -11 0 -7 -10 -5 -25 5 -35
23 -36 20 -2 -16 21 -23 30 -45 32 -71 1 -28 11 -47 35 -72 18 -19 38 -31 43
-28 6 4 8 0 4 -11 -4 -9 -3 -15 2 -12 4 3 23 -10 41 -29 37 -38 68 -48 51 -17
-6 11 -5 23 3 34 11 15 13 15 24 -2 10 -17 9 -18 -6 -13 -15 6 -15 5 -2 -11
14 -17 15 -17 24 3 8 18 3 28 -25 59 -19 20 -42 46 -50 57 -14 19 -13 19 11 3
14 -9 24 -21 22 -27 -1 -6 5 -11 13 -11 8 0 15 -6 15 -13 0 -8 10 -22 22 -33
l22 -19 -19 30 c-16 25 -16 28 -2 16 10 -8 21 -11 25 -7 4 4 -4 16 -18 28 -14
11 -18 16 -10 12 13 -7 13 -5 2 8 -9 11 -10 18 -2 23 5 3 10 1 10 -4 0 -6 3
-11 8 -11 4 0 7 11 7 25 0 15 -5 23 -12 21 -15 -6 -38 20 -24 28 5 4 12 2 16
-4 3 -5 11 -10 16 -10 6 0 7 5 4 10 -4 6 6 10 23 10 29 0 48 -22 36 -41 -10
-16 -22 -10 -17 9 3 11 -1 19 -9 19 -20 0 -17 -36 4 -42 15 -5 12 -15 -23 -88
-26 -54 -47 -85 -63 -92 -13 -5 -31 -17 -41 -25 -16 -13 -68 -115 -89 -174 -6
-17 -14 -13 -65 38 -31 31 -69 60 -84 64 -15 4 -26 12 -26 17 1 6 5 9 9 8 5
-2 7 7 5 18 -4 21 -4 21 15 4 11 -10 20 -14 20 -10 0 5 6 0 14 -10 8 -11 12
-23 10 -26 -2 -4 5 -14 16 -24 11 -10 20 -13 20 -7 0 6 -8 16 -17 22 -15 9
-14 10 6 4 17 -4 22 -2 19 7 -3 8 -11 14 -18 14 -8 0 -24 9 -35 20 -12 11 -52
47 -89 80 -38 33 -75 68 -84 78 -9 9 -22 17 -28 17 -6 0 -21 9 -34 20 -13 11
-19 20 -14 20 5 0 4 4 -2 8 -6 4 -14 17 -18 29 -6 18 -4 20 14 16 15 -4 20 -1
20 13 0 16 -2 16 -10 4 -12 -19 -24 -6 -15 17 6 17 8 16 25 -5 11 -13 17 -31
14 -40 -5 -15 -4 -15 5 -2 10 13 15 11 37 -15 54 -63 64 -75 58 -75 -3 0 11
-15 32 -34 21 -19 42 -32 46 -30 4 3 5 -2 2 -11 -4 -9 -2 -15 4 -13 6 2 32
-24 59 -56 48 -59 82 -85 70 -53 -4 11 -2 14 9 10 8 -3 13 -11 11 -18 -3 -6 1
-12 8 -12 15 0 4 30 -16 42 -7 5 -6 11 2 21 9 12 9 13 -2 9 -15 -6 -23 3 -114
120 -66 85 -98 142 -89 157 5 7 3 8 -6 3 -9 -6 -12 -4 -8 7 4 8 -2 21 -13 29
-30 21 -95 170 -83 190 3 5 1 9 -5 9 -5 0 -12 8 -16 19 -3 10 -16 31 -30 47
-23 27 -23 29 -7 57 9 15 26 36 36 45 18 16 19 16 13 -1 -8 -23 50 23 83 66
27 34 37 34 52 2z m-456 -42 c19 -25 17 -32 -6 -26 -24 6 -34 19 -25 33 9 14
16 12 31 -7z m84 -8 c0 -8 -2 -15 -4 -15 -2 0 -6 7 -10 15 -3 8 -1 15 4 15 6
0 10 -7 10 -15z m469 -45 c11 -24 11 -24 -3 -6 -9 11 -16 24 -16 30 0 12 5 7
19 -24z m-659 -10 c0 -5 -5 -10 -11 -10 -5 0 -7 5 -4 10 3 6 8 10 11 10 2 0 4
-4 4 -10z m124 -8 c3 -5 -1 -9 -9 -9 -8 0 -12 4 -9 9 3 4 7 8 9 8 2 0 6 -4 9
-8z m115 -44 c5 -13 7 -24 6 -26 -6 -7 -44 32 -39 40 9 15 25 8 33 -14z m35
-9 c-3 -5 -1 -9 4 -9 6 0 13 -8 16 -17 6 -15 4 -15 -14 2 -11 10 -18 20 -15
23 3 3 -1 12 -8 21 -11 14 -10 14 5 2 10 -7 15 -17 12 -22z m-194 -22 c0 -6
-9 0 -20 13 -11 13 -20 25 -20 28 0 3 9 -3 20 -13 11 -10 20 -23 20 -28z
m-733 8 c0 -8 -4 -12 -9 -9 -5 3 -6 10 -3 15 9 13 12 11 12 -6z m816 0 c-3 -9
-8 -14 -10 -11 -3 3 -2 9 2 15 9 16 15 13 8 -4z m106 -116 c17 -20 28 -39 24
-43 -3 -3 -1 -6 6 -6 6 0 15 -10 20 -23 5 -13 22 -39 37 -58 l28 -34 -32 30
c-18 16 -35 40 -38 52 -4 13 -10 21 -14 18 -5 -3 -12 5 -16 17 -4 12 -17 31
-30 41 -14 10 -22 22 -19 27 3 4 -9 18 -25 31 -16 13 -30 30 -30 38 0 13 11 2
89 -90z m20 57 c-2 -2 -13 8 -23 22 l-19 27 24 -22 c12 -12 21 -24 18 -27z
m482 -13 c13 -16 12 -17 -3 -4 -10 7 -18 15 -18 17 0 8 8 3 21 -13z m-426 -43
l20 -25 -22 19 c-13 11 -23 24 -23 29 0 6 1 8 3 6 1 -2 11 -15 22 -29z m-225
-15 c13 -14 21 -25 18 -25 -2 0 -15 11 -28 25 -13 14 -21 25 -18 25 2 0 15
-11 28 -25z m-822 -10 c-3 -3 -9 2 -12 12 -6 14 -5 15 5 6 7 -7 10 -15 7 -18z
m1426 10 c3 -8 1 -15 -4 -15 -6 0 -10 7 -10 15 0 8 2 15 4 15 2 0 6 -7 10 -15z
m-612 -115 c6 0 5 7 -3 18 -11 14 -11 15 1 5 14 -13 23 -43 13 -43 -14 0 -84
59 -98 83 -13 21 -5 17 30 -18 26 -25 51 -45 57 -45z m633 70 c-3 -5 6 -21 19
-35 14 -15 36 -39 50 -54 14 -15 26 -33 26 -39 0 -7 3 -11 8 -9 4 1 7 -2 7 -7
0 -5 10 -12 23 -17 22 -8 31 -29 12 -29 -5 0 -10 6 -10 13 0 9 -3 8 -9 -2 -7
-11 -13 -9 -31 9 -12 12 -19 28 -16 35 3 9 0 12 -8 9 -7 -3 -21 7 -30 21 -9
14 -21 23 -26 20 -6 -4 -10 0 -10 8 0 8 -9 26 -20 40 -11 14 -20 31 -20 39 0
10 3 9 10 -2 9 -14 14 -7 11 13 -1 5 3 6 9 2 6 -3 8 -10 5 -15z m85 -13 c0 -4
-6 -2 -14 5 -8 7 -12 17 -9 22 5 8 23 -12 23 -27z m-1479 -4 c13 -16 12 -17
-3 -4 -10 7 -18 15 -18 17 0 8 8 3 21 -13z m150 -15 c11 -21 11 -22 -4 -9 -10
7 -17 17 -17 22 0 15 9 10 21 -13z m706 -5 c-4 -4 3 -18 17 -32 13 -14 32 -39
42 -56 l18 -30 -32 29 c-18 17 -32 36 -32 43 0 7 -5 13 -11 13 -5 0 -7 -6 -3
-12 4 -7 3 -9 -1 -5 -17 15 -15 57 2 57 4 0 3 -3 0 -7z m-749 -122 c-5 -2 -17
7 -25 19 -10 15 -18 18 -23 11 -5 -9 -11 -7 -20 4 -11 13 -10 14 4 9 12 -5 15
-2 10 10 -3 9 -10 14 -14 11 -4 -2 -16 5 -26 17 -11 12 -13 18 -6 14 6 -4 12
-2 12 4 0 6 22 -13 49 -42 27 -29 45 -55 39 -57z m972 87 c0 -6 -6 -5 -15 2
-8 7 -15 14 -15 16 0 2 7 1 15 -2 8 -4 15 -11 15 -16z m-125 -27 c-3 -2 8 -18
23 -36 15 -18 34 -43 43 -54 9 -12 54 -56 100 -98 85 -76 104 -98 75 -87 -9 3
-16 1 -16 -4 0 -6 11 -9 24 -6 15 2 26 -1 29 -10 7 -17 -21 -44 -31 -30 -4 5
-26 22 -49 37 -24 15 -43 30 -43 33 0 4 7 1 15 -6 29 -24 14 5 -22 44 -27 27
-32 37 -18 32 l20 -7 -20 18 c-11 11 -29 22 -39 26 -19 8 -19 7 -1 -13 10 -11
15 -20 11 -20 -4 0 2 -13 14 -30 12 -16 17 -30 12 -30 -5 0 -15 11 -22 25 -7
14 -17 25 -22 25 -4 0 -8 8 -8 17 0 9 -3 13 -7 10 -8 -8 -43 48 -43 69 0 8 -4
13 -8 10 -8 -5 -10 0 -14 41 -1 10 -10 26 -20 37 -24 26 -23 39 2 24 10 -7 17
-14 15 -17z m575 -15 c0 -12 -5 -7 -19 24 -11 24 -11 24 3 6 9 -11 16 -24 16
-30z m80 9 c0 -9 -50 0 -54 11 -4 10 1 10 25 2 16 -5 29 -11 29 -13z m-594
-32 c-4 -4 -11 -1 -16 7 -16 25 -11 35 7 17 9 -9 13 -20 9 -24z m82 12 c-3 -3
-9 2 -12 12 -6 14 -5 15 5 6 7 -7 10 -15 7 -18z m-944 -47 c-5 -8 19 -38 30
-38 3 0 2 7 -1 17 -5 11 -3 14 6 9 7 -5 10 -17 7 -29 -3 -13 -2 -17 5 -10 14
14 49 4 49 -13 0 -8 3 -13 8 -13 21 4 42 -2 37 -10 -3 -5 2 -11 12 -13 9 -2
17 -13 18 -26 1 -18 -2 -22 -17 -19 -15 4 -17 3 -8 -8 9 -11 7 -12 -7 -9 -24
7 -49 43 -31 45 7 1 18 0 23 -1 5 -1 7 1 3 5 -3 4 -8 5 -11 3 -2 -1 -11 3 -21
11 -14 12 -16 12 -10 -2 3 -10 -2 -20 -16 -27 -18 -10 -26 -6 -62 29 -36 37
-40 46 -16 42 4 0 5 6 1 15 -4 12 -8 13 -14 3 -5 -9 -10 -4 -15 15 -4 18 -2
31 5 35 9 6 8 11 -4 21 -8 7 -15 18 -15 24 1 6 12 -2 25 -18 13 -17 22 -34 19
-38z m46 40 c0 -4 -4 -8 -9 -8 -6 0 -12 4 -15 8 -3 5 1 9 9 9 8 0 15 -4 15 -9z
m536 -18 c16 7 32 6 43 0 10 -5 21 -6 25 -3 3 3 6 1 6 -5 0 -19 -17 -23 -30
-7 -7 8 -17 15 -23 15 -6 0 -2 -7 10 -15 16 -11 20 -23 18 -50 -3 -32 -2 -34
17 -24 20 11 20 11 2 -14 -17 -22 -20 -23 -30 -8 -7 9 -10 20 -7 26 4 5 3 7
-2 3 -9 -8 -35 9 -35 23 0 4 9 6 19 4 19 -4 22 9 8 33 -5 7 -13 9 -20 5 -7 -4
-4 -9 9 -14 18 -7 18 -8 0 -8 -21 -1 -46 26 -45 49 1 11 3 10 6 -2 3 -14 9
-15 29 -8z m659 -1 c11 -16 1 -19 -13 -3 -7 8 -8 14 -3 14 5 0 13 -5 16 -11z
m-1165 -14 c7 -8 19 -15 27 -15 8 0 11 -4 8 -10 -3 -6 1 -7 10 -4 14 6 14 9
-2 27 -17 19 -17 20 2 9 11 -6 32 -22 46 -36 20 -19 29 -22 38 -13 10 9 12 9
9 -3 -2 -8 3 -14 9 -15 7 0 20 -11 30 -24 12 -18 13 -22 2 -16 -9 5 -7 1 4
-12 9 -11 17 -25 17 -32 0 -7 4 -10 9 -7 5 3 8 -2 7 -12 0 -11 6 -16 17 -16
10 1 25 -10 35 -24 9 -14 36 -37 59 -52 23 -15 39 -30 36 -34 -4 -4 0 -4 9 -1
10 4 26 -4 43 -22 25 -26 26 -26 20 -6 -5 18 -3 22 9 17 9 -3 13 -11 9 -17 -4
-6 0 -8 9 -4 9 3 24 0 34 -8 11 -7 21 -12 24 -12 10 3 152 -97 157 -109 3 -7
18 -16 34 -19 35 -8 39 -24 4 -17 -21 4 -24 1 -18 -14 6 -16 5 -17 -9 -4 -9 8
-12 18 -7 21 11 6 -7 23 -71 64 -25 17 -50 36 -55 43 -6 7 -25 14 -42 16 -17
1 -38 8 -47 15 -9 7 -16 9 -16 3 0 -5 7 -15 15 -22 26 -22 16 -32 -11 -11 -14
11 -41 23 -60 27 -19 3 -34 10 -34 15 0 4 -20 20 -45 35 -25 14 -45 29 -45 32
0 4 -12 16 -27 26 -14 11 -23 14 -19 8 5 -8 2 -10 -8 -6 -9 3 -13 11 -9 17 3
5 1 7 -5 3 -11 -7 -101 43 -102 57 0 5 6 5 13 1 8 -5 7 -2 -2 9 -19 24 -6 34
17 14 10 -10 23 -17 28 -17 4 0 -1 7 -13 15 -12 9 -21 21 -19 28 1 6 1 9 -1 5
-7 -11 -38 23 -38 40 0 10 -11 16 -28 16 -26 2 -105 66 -81 66 7 0 17 -7 24
-15z m-125 -31 c9 -15 12 -23 6 -20 -11 7 -35 46 -28 46 3 0 12 -12 22 -26z
m770 -9 c31 -20 53 -40 50 -45 -4 -6 -1 -10 5 -10 6 0 8 -4 5 -10 -3 -6 1 -7
9 -4 11 4 16 0 16 -15 0 -12 5 -21 11 -21 5 0 7 5 3 12 -4 7 -3 8 5 4 6 -4 9
-12 5 -17 -3 -6 2 -19 12 -30 9 -10 12 -19 6 -19 -6 0 -25 17 -42 38 -21 24
-27 28 -19 12 7 -14 12 -29 11 -33 -1 -5 3 -5 9 -1 8 4 9 3 5 -4 -5 -8 -16 -5
-37 10 -26 20 -41 37 -21 24 5 -3 9 1 9 9 0 8 -4 12 -8 9 -10 -6 -49 17 -49
29 0 4 5 5 12 1 7 -4 8 -3 4 4 -4 6 -14 8 -24 5 -9 -3 -14 -2 -10 2 10 11 -29
38 -42 30 -6 -3 -10 -1 -10 5 0 13 19 50 25 50 3 0 30 -16 60 -35z m622 -43
c14 -23 2 -50 -14 -30 -11 14 -14 48 -4 48 4 0 11 -8 18 -18z m411 -137 c34
-37 0 -13 -50 36 -21 20 -34 39 -30 43 4 4 17 -5 30 -21 13 -15 35 -41 50 -58z
m-1640 50 c13 -15 19 -31 15 -41 -5 -13 -3 -15 7 -9 9 5 11 4 6 -3 -4 -7 -3
-12 3 -12 5 0 12 6 15 13 3 6 4 3 1 -8 -3 -14 5 -26 26 -41 28 -20 28 -22 12
-35 -10 -7 -15 -9 -11 -5 5 5 -7 23 -25 40 -43 42 -85 91 -68 81 9 -5 12 -3 9
6 -3 8 -11 14 -18 14 -7 0 -15 6 -17 13 -8 21 22 13 45 -13z m-1118 1 c0 -2
-8 -10 -17 -17 -16 -13 -17 -12 -4 4 13 16 21 21 21 13z m815 -6 c-3 -5 -12
-10 -18 -10 -7 0 -6 4 3 10 19 12 23 12 15 0z m55 -25 c14 -19 14 -19 -3 -6
-15 12 -19 12 -32 -5 -8 -10 -15 -22 -15 -25 0 -4 -7 -9 -14 -12 -10 -4 -13
-1 -10 8 3 7 12 16 20 19 8 3 14 12 14 20 0 10 23 31 25 22 1 0 7 -10 15 -21z
m1008 -27 c-4 -12 -24 -9 -20 3 1 5 -1 8 -5 8 -21 -3 -33 2 -33 15 0 12 5 12
31 -1 16 -8 29 -19 27 -25z m-352 -20 l19 -23 -25 20 c-14 11 -27 21 -29 22
-2 2 0 3 6 3 5 0 18 -10 29 -22z m-583 -51 c4 -11 3 -16 -3 -12 -6 3 -10 2
-10 -3 0 -6 7 -12 15 -16 8 -3 12 -12 9 -21 -7 -18 -30 -14 -26 5 1 7 -3 18
-9 26 -8 10 -8 18 -1 27 8 10 6 16 -9 25 -11 7 -17 17 -14 23 7 10 37 -23 48
-54z m68 46 c13 -16 12 -17 -3 -4 -17 13 -22 21 -14 21 2 0 10 -8 17 -17z
m900 0 c13 -16 12 -17 -3 -4 -10 7 -18 15 -18 17 0 8 8 3 21 -13z m-617 -32
c-2 -3 -12 3 -22 13 -16 17 -16 18 5 5 12 -7 20 -15 17 -18z m607 12 c13 -16
12 -17 -3 -4 -17 13 -22 21 -14 21 2 0 10 -8 17 -17z m-1149 -32 c-20 -22 -39
-38 -40 -36 -5 5 61 75 70 75 4 0 -9 -18 -30 -39z m1259 22 c13 -17 13 -17 -6
-3 -11 8 -22 16 -24 17 -2 2 0 3 6 3 6 0 17 -8 24 -17z m-1381 -2 c0 -5 -7
-12 -16 -15 -14 -5 -15 -4 -4 9 14 17 20 19 20 6z m444 -30 c-2 -3 -12 3 -22
13 -16 17 -16 18 5 5 12 -7 20 -15 17 -18z m251 -41 c10 -11 16 -20 13 -20 -3
0 -13 9 -23 20 -10 11 -16 20 -13 20 3 0 13 -9 23 -20z m-254 -17 c13 -16 12
-17 -3 -4 -10 7 -18 15 -18 17 0 8 8 3 21 -13z m483 -48 c6 -6 26 -22 44 -38
19 -15 29 -27 23 -27 -6 0 -36 20 -67 45 -30 25 -62 45 -71 45 -12 0 -13 3 -4
14 13 15 19 12 75 -39z m81 7 c-2 -2 -11 3 -20 12 -9 9 -21 16 -26 16 -6 0 -7
5 -4 11 5 7 16 2 31 -12 13 -12 22 -24 19 -27z m-24 -13 c19 -17 25 -27 14
-21 -20 10 -63 52 -53 52 2 0 20 -14 39 -31z m-706 1 c-3 -5 -14 -7 -25 -5
-11 2 -20 0 -20 -6 0 -5 -4 -9 -10 -9 -5 0 -7 7 -3 16 3 8 12 13 19 10 7 -3
16 -1 19 5 4 5 11 7 16 3 5 -3 7 -9 4 -14z m21 -60 c8 0 11 -6 8 -14 -6 -17
-30 -11 -31 7 0 7 -4 21 -7 32 -5 15 -4 15 5 -2 7 -13 18 -23 25 -23z m814 4
c0 -2 -9 0 -20 6 -11 6 -20 13 -20 16 0 2 9 0 20 -6 11 -6 20 -13 20 -16z
m160 -6 c0 -4 6 -8 13 -8 8 0 14 -7 14 -15 0 -11 -3 -12 -14 -3 -11 9 -16 9
-23 -1 -6 -11 -12 -11 -26 -1 -16 9 -16 11 -2 6 24 -7 32 11 11 23 -16 9 -15
10 5 8 12 -1 22 -5 22 -9z m-780 -59 c0 7 5 9 11 5 8 -4 8 -9 0 -17 -8 -8 -16
-6 -29 8 -16 18 -16 18 1 6 12 -10 17 -10 17 -2z m1550 -843 c0 -2 -8 -10 -17
-17 -16 -13 -17 -12 -4 4 13 16 21 21 21 13z m45 -244 c-3 -3 -11 0 -18 7 -9
10 -8 11 6 5 10 -3 15 -9 12 -12z m-185 -74 c18 -29 26 -47 19 -41 -16 13 -63
93 -55 93 2 0 19 -24 36 -52z m55 -47 c-3 -6 3 -14 12 -20 10 -6 13 -11 7 -11
-15 0 -36 25 -27 33 10 10 15 8 8 -2z m125 -61 c17 0 29 -4 26 -9 -9 -15 -116
17 -116 35 0 2 13 -2 30 -11 16 -8 43 -15 60 -15z"/>
<path d="M2377 3750 c-27 -28 -53 -50 -58 -50 -5 0 -9 -5 -9 -11 0 -17 32 -6
44 15 6 10 26 34 44 52 28 29 38 44 30 44 -2 0 -25 -23 -51 -50z"/>
<path d="M2365 3649 c-27 -58 -66 -119 -76 -119 -5 0 -2 12 8 28 16 26 16 26
-1 11 -9 -9 -19 -22 -20 -30 -5 -24 -57 -132 -77 -160 -23 -33 -24 -39 -4 -39
8 0 15 4 15 9 0 5 6 16 13 23 7 7 22 29 33 48 12 19 40 65 63 102 39 64 75
148 66 156 -2 2 -11 -11 -20 -29z"/>
<path d="M2205 3537 c-10 -13 -36 -77 -30 -77 2 0 13 16 25 35 21 34 25 64 5
42z"/>
<path d="M1821 3428 c0 -10 -5 -18 -10 -18 -8 0 -51 -72 -51 -86 0 -13 23 11
46 48 14 22 23 47 21 56 -4 15 -5 15 -6 0z"/>
<path d="M2417 3393 c-4 -3 -7 -11 -7 -17 0 -6 5 -5 12 2 6 6 9 14 7 17 -3 3
-9 2 -12 -2z"/>
<path d="M2391 3365 c-1 -6 -15 -26 -33 -45 -28 -32 -93 -140 -83 -140 2 0 22
26 45 58 22 31 50 69 61 83 12 15 19 33 16 40 -3 8 -6 9 -6 4z"/>
<path d="M1640 3157 c-36 -40 -58 -66 -49 -59 10 7 23 11 30 10 8 -2 15 7 17
20 2 12 8 22 13 22 11 0 33 19 40 35 2 6 7 9 12 8 4 -2 7 6 7 17 0 11 -1 20
-2 20 -2 -1 -32 -33 -68 -73z"/>
<path d="M2484 3118 c12 -24 28 -54 36 -68 8 -14 13 -43 13 -65 0 -22 2 -34 4
-27 4 10 8 10 19 1 8 -6 11 -16 7 -23 -3 -6 -3 -8 2 -4 11 11 36 -12 28 -25
-3 -5 -1 -7 4 -4 10 6 20 -6 21 -27 0 -5 4 -12 9 -15 5 -3 16 -18 26 -33 10
-16 24 -28 31 -28 8 0 16 -5 18 -11 2 -7 9 -5 17 5 12 14 12 16 -4 10 -14 -6
-16 -3 -10 14 4 14 2 22 -6 22 -8 0 -9 3 0 14 9 10 7 16 -5 27 -8 7 -27 35
-41 63 -14 27 -32 56 -39 64 -8 8 -23 31 -34 51 -10 21 -26 44 -36 52 -16 13
-16 12 -5 -9 22 -41 6 -34 -29 13 -42 57 -54 58 -26 3z m192 -231 c25 -25 25
-26 5 -37 -12 -6 -20 -7 -19 -3 3 10 -29 70 -53 102 -11 13 -19 31 -19 39 0 9
14 -5 30 -30 17 -25 42 -57 56 -71z m19 -67 c-3 -5 -10 -10 -16 -10 -5 0 -9 5
-9 10 0 6 7 10 16 10 8 0 12 -4 9 -10z"/>
<path d="M1675 3140 c-3 -5 -4 -10 -2 -10 2 0 -20 -26 -49 -57 -94 -101 -117
-134 -62 -88 20 17 40 38 43 48 4 9 11 15 16 12 5 -4 9 -3 9 2 0 4 13 23 28
41 16 18 29 40 29 48 0 17 -4 18 -12 4z"/>
<path d="M2376 3108 c4 -7 16 -19 25 -26 23 -16 82 -119 75 -130 -3 -5 1 -9
10 -9 28 0 -11 92 -60 141 -35 35 -65 49 -50 24z"/>
<path d="M2417 3009 c4 -13 8 -18 11 -10 2 7 -1 18 -6 23 -8 8 -9 4 -5 -13z"/>
<path d="M2506 2997 c3 -10 9 -15 12 -12 3 3 0 11 -7 18 -10 9 -11 8 -5 -6z"/>
<path d="M2542 2844 c10 -10 20 -16 22 -13 3 3 -5 11 -17 18 -21 13 -21 12 -5
-5z"/>
<path d="M1633 2835 c0 -8 4 -12 9 -9 4 3 8 9 8 15 0 5 -4 9 -8 9 -5 0 -9 -7
-9 -15z"/>
<path d="M2730 2830 c6 -11 13 -20 16 -20 2 0 0 9 -6 20 -6 11 -13 20 -16 20
-2 0 0 -9 6 -20z"/>
<path d="M1855 2750 c-4 -6 -10 -8 -15 -5 -10 6 -40 -22 -40 -38 0 -7 5 -5 10
4 5 9 21 20 35 23 14 4 25 11 25 16 0 13 -7 13 -15 0z"/>
<path d="M2800 2740 c-9 -6 -10 -10 -3 -10 6 0 15 5 18 10 8 12 4 12 -15 0z"/>
<path d="M2820 2726 c0 -2 8 -10 18 -17 15 -13 16 -12 3 4 -13 16 -21 21 -21
13z"/>
<path d="M2914 2688 c-15 -23 -11 -46 5 -40 14 5 14 4 1 -14 -14 -17 -13 -18
1 -7 9 7 20 9 25 5 4 -4 2 1 -5 11 -7 9 -10 17 -6 17 4 0 2 6 -4 13 -6 8 -8
17 -4 20 3 4 4 7 0 7 -3 0 -9 -6 -13 -12z"/>
<path d="M2507 2663 c-8 -13 3 -22 34 -28 17 -3 19 -2 9 10 -7 8 -16 13 -20
10 -5 -3 -10 0 -12 7 -3 9 -6 9 -11 1z"/>
<path d="M3149 2658 c14 -19 32 -15 30 5 0 8 -2 8 -6 -1 -4 -10 -8 -10 -21 0
-15 12 -16 11 -3 -4z"/>
<path d="M2382 2651 c-11 -6 -9 -9 6 -13 15 -4 19 -2 15 8 -6 16 -4 16 -21 5z"/>
<path d="M3190 2643 c0 -12 38 -48 45 -41 3 2 -6 15 -20 28 -14 13 -25 19 -25
13z"/>
<path d="M1900 2600 l-25 -8 28 -1 c15 -1 27 4 27 9 0 6 -1 10 -2 9 -2 -1 -14
-5 -28 -9z"/>
<path d="M1785 2590 c-3 -5 1 -10 10 -10 9 0 13 5 10 10 -3 6 -8 10 -10 10 -2
0 -7 -4 -10 -10z"/>
<path d="M2167 2594 c-3 -5 1 -15 9 -22 16 -14 18 -5 5 17 -5 7 -11 9 -14 5z"/>
<path d="M3160 2568 c0 -9 7 -19 16 -22 15 -6 15 -4 3 11 -7 10 -15 20 -16 22
-2 2 -3 -3 -3 -11z"/>
<path d="M2359 2513 c-8 -9 -9 -14 -2 -10 6 4 13 1 16 -5 3 -7 4 -3 4 10 -1
26 -1 26 -18 5z"/>
<path d="M2275 2490 c27 -12 43 -12 25 0 -8 5 -22 9 -30 9 -10 0 -8 -3 5 -9z"/>
<path d="M2681 2484 c0 -11 3 -14 6 -6 3 7 2 16 -1 19 -3 4 -6 -2 -5 -13z"/>
<path d="M1886 2475 c-3 -8 -1 -15 4 -15 6 0 10 7 10 15 0 8 -2 15 -4 15 -2 0
-6 -7 -10 -15z"/>
<path d="M2131 2454 c0 -11 3 -14 6 -6 3 7 2 16 -1 19 -3 4 -6 -2 -5 -13z"/>
<path d="M2520 2460 c-13 -8 -12 -10 3 -10 9 0 17 5 17 10 0 12 -1 12 -20 0z"/>
<path d="M2050 2456 c0 -2 7 -7 16 -10 8 -3 12 -2 9 4 -6 10 -25 14 -25 6z"/>
<path d="M2300 2440 c8 -5 20 -10 25 -10 6 0 3 5 -5 10 -8 5 -19 10 -25 10 -5
0 -3 -5 5 -10z"/>
<path d="M2158 2433 c7 -3 16 -2 19 1 4 3 -2 6 -13 5 -11 0 -14 -3 -6 -6z"/>
<path d="M2059 2403 c-13 -16 -12 -17 4 -4 9 7 17 15 17 17 0 8 -8 3 -21 -13z"/>
<path d="M2350 2406 c0 -2 7 -7 16 -10 8 -3 12 -2 9 4 -6 10 -25 14 -25 6z"/>
<path d="M2005 2390 c-16 -7 -17 -9 -3 -9 9 -1 20 4 23 9 7 11 7 11 -20 0z"/>
<path d="M2115 2390 c-3 -5 -1 -10 4 -10 6 0 11 5 11 10 0 6 -2 10 -4 10 -3 0
-8 -4 -11 -10z"/>
<path d="M2430 2379 c0 -5 9 -9 20 -9 11 0 20 2 20 4 0 2 -9 6 -20 9 -11 3
-20 1 -20 -4z"/>
<path d="M2140 2376 c0 -2 9 -6 20 -9 11 -3 18 -1 14 4 -5 9 -34 13 -34 5z"/>
<path d="M2200 2370 c0 -5 5 -10 11 -10 5 0 7 5 4 10 -3 6 -8 10 -11 10 -2 0
-4 -4 -4 -10z"/>
<path d="M3098 3360 c-15 -17 -24 -30 -20 -30 10 0 34 20 51 43 22 29 -2 19
-31 -13z"/>
<path d="M3145 3223 c2 -10 8 -30 13 -44 6 -15 8 -30 5 -33 -4 -3 0 -6 7 -6 7
0 11 -3 7 -6 -3 -4 11 -39 33 -79 21 -41 35 -77 32 -81 -4 -4 -2 -4 5 0 9 5 9
14 1 39 -6 17 -14 34 -17 37 -9 7 -31 48 -31 57 0 4 15 -12 32 -35 27 -35 34
-39 39 -25 4 11 -1 28 -12 41 -10 13 -15 30 -12 38 3 8 0 14 -6 14 -7 0 -21
21 -33 48 -26 58 -27 60 -38 42 -7 -10 -10 -11 -10 -2 0 6 -4 12 -9 12 -6 0
-8 -8 -6 -17z"/>
<path d="M3064 2978 c-7 -10 95 -111 131 -130 17 -10 18 -9 8 3 -41 50 -134
135 -139 127z"/>
<path d="M3323 2861 c0 -11 4 -18 8 -16 3 3 16 -7 28 -21 12 -14 25 -23 29
-19 4 3 0 10 -8 15 -8 6 -12 10 -8 10 10 0 -33 50 -43 50 -4 0 -7 -9 -6 -19z"/>
<path d="M3240 2736 c0 -2 7 -7 16 -10 8 -3 12 -2 9 4 -6 10 -25 14 -25 6z"/>
<path d="M3100 2861 c0 -6 4 -13 10 -16 6 -3 7 1 4 9 -7 18 -14 21 -14 7z"/>
<path d="M3134 2805 c3 -23 12 -26 13 -5 1 11 -2 20 -7 20 -4 0 -7 -7 -6 -15z"/>
<path d="M2165 2905 c39 -33 57 -32 19 0 -16 14 -33 25 -39 25 -5 -1 4 -12 20
-25z"/>
<path d="M2355 2830 c3 -5 8 -10 11 -10 2 0 4 5 4 10 0 6 -5 10 -11 10 -5 0
-7 -4 -4 -10z"/>
<path d="M2456 2807 c3 -10 9 -15 12 -12 3 3 0 11 -7 18 -10 9 -11 8 -5 -6z"/>
<path d="M2515 2730 c10 -11 23 -20 28 -20 6 0 0 9 -13 20 -13 11 -25 20 -28
20 -3 0 3 -9 13 -20z"/>
<path d="M2788 2963 c7 -3 16 -2 19 1 4 3 -2 6 -13 5 -11 0 -14 -3 -6 -6z"/>
<path d="M2870 2911 c0 -5 7 -12 16 -15 14 -5 15 -4 4 9 -14 17 -20 19 -20 6z"/>
<path d="M1306 2875 c-10 -8 -15 -19 -10 -26 4 -8 3 -10 -5 -5 -15 10 -64 -41
-55 -56 4 -6 2 -8 -4 -4 -11 7 -162 -81 -162 -95 0 -4 -9 -10 -19 -14 -11 -3
-22 -13 -25 -21 -6 -14 61 30 76 51 4 5 8 6 8 2 0 -5 12 0 28 11 48 34 80 43
99 30 7 -6 14 -4 19 3 4 7 3 9 -4 5 -6 -3 -13 -2 -17 4 -3 5 -2 10 3 10 13 0
73 59 95 93 19 30 6 37 -27 12z"/>
<path d="M1289 2783 c-13 -16 -12 -17 4 -4 9 7 17 15 17 17 0 8 -8 3 -21 -13z"/>
<path d="M3746 2774 c18 -15 18 -15 -4 -9 -22 6 -22 6 3 -21 14 -15 24 -33 21
-40 -3 -7 0 -11 7 -8 7 2 22 -6 33 -18 51 -57 138 -112 201 -127 21 -5 45 -10
53 -12 9 -3 16 5 18 19 2 12 -1 22 -7 22 -5 0 -22 5 -38 11 -15 6 -30 11 -33
12 -10 2 -28 22 -24 28 2 3 -7 5 -19 4 -25 -3 -69 33 -60 48 3 6 2 7 -4 4 -13
-8 -85 52 -77 64 3 5 11 6 17 3 9 -5 9 -4 0 6 -18 19 -47 -11 -30 -31 7 -7 2
-5 -10 5 -25 21 -30 31 -10 21 6 -4 1 3 -13 14 -14 11 -29 21 -34 21 -6 0 -1
-7 10 -16z"/>
<path d="M1330 2755 c0 -8 -4 -15 -9 -15 -8 0 -31 -17 -107 -79 -7 -6 -16 -5
-24 2 -10 9 -11 9 -6 0 7 -12 -38 -53 -59 -53 -7 0 -16 -7 -19 -16 -3 -8 -9
-13 -14 -11 -4 3 -16 -1 -27 -9 -21 -16 -8 -18 27 -5 120 46 159 72 230 146
41 44 46 55 23 55 -8 0 -15 -7 -15 -15z"/>
<path d="M1210 2721 c0 -6 4 -13 10 -16 6 -3 7 1 4 9 -7 18 -14 21 -14 7z"/>
<path d="M1288 2633 c7 -3 16 -2 19 1 4 3 -2 6 -13 5 -11 0 -14 -3 -6 -6z"/>
<path d="M3779 2633 c-1 -5 -1 -11 0 -15 1 -11 -7 -10 -32 3 -12 7 0 -8 27
-32 68 -60 87 -73 116 -77 19 -2 15 3 -20 23 -62 36 -89 64 -85 86 2 10 2 19
-1 19 -2 0 -5 -3 -5 -7z"/>
<path d="M1254 2612 c23 -26 23 -26 23 -7 0 8 -3 13 -5 10 -3 -3 -12 1 -21 7
-10 8 -9 4 3 -10z"/>
<path d="M3820 2615 c-7 -9 -10 -18 -6 -22 3 -3 6 -1 6 6 0 7 7 11 14 8 10 -4
13 -1 9 9 -6 18 -8 18 -23 -1z"/>
<path d="M4234 2605 c-4 -9 -13 -14 -20 -11 -8 3 -11 0 -8 -9 6 -15 34 -9 34
7 0 6 11 7 27 3 31 -7 29 -4 -5 14 -18 10 -23 9 -28 -4z"/>
<path d="M1303 2578 c-34 -17 -60 -34 -58 -38 3 -5 -2 -11 -11 -14 -23 -9 -24
-8 -18 12 5 16 5 16 -6 -1 -6 -9 -16 -14 -22 -11 -6 4 -8 3 -4 -4 3 -5 0 -13
-6 -15 -8 -3 -6 -6 5 -6 9 -1 17 4 17 10 0 5 5 7 10 4 6 -4 22 1 36 10 13 9
29 13 34 10 6 -4 7 1 3 12 -6 15 -4 16 8 6 13 -11 20 -8 38 13 12 13 25 22 30
19 5 -2 11 2 15 10 7 20 1 19 -71 -17z"/>
<path d="M3860 2594 c0 -2 9 -8 20 -14 11 -6 20 -7 20 -2 0 6 -9 12 -20 15
-11 3 -20 3 -20 1z"/>
<path d="M1300 2515 c-41 -19 -77 -40 -79 -47 -3 -10 -1 -10 12 0 9 8 22 10
28 6 7 -4 9 -3 6 3 -4 6 4 11 18 11 14 0 34 9 44 21 10 11 20 18 23 16 3 -3
11 1 18 10 17 20 17 20 -70 -20z"/>
<path d="M3777 2539 c7 -7 15 -10 18 -7 3 3 -2 9 -12 12 -14 6 -15 5 -6 -5z"/>
<path d="M3664 2491 c7 -11 46 -35 46 -28 0 3 -12 12 -26 22 -15 9 -23 12 -20
6z"/>
<path d="M3635 2478 c11 -6 23 -16 27 -22 5 -8 8 -7 8 1 0 7 -9 17 -19 23 -27
14 -41 12 -16 -2z"/>
<path d="M3725 2460 c-3 -6 -2 -10 4 -10 5 0 17 -7 25 -16 10 -10 16 -11 16
-3 0 8 5 8 17 -2 12 -10 14 -10 9 -1 -12 20 -64 43 -71 32z"/>
<path d="M968 1153 c-53 -16 -63 -38 -24 -53 32 -12 39 -43 27 -121 -1 -3 -27
-3 -59 -1 -123 9 -202 -70 -203 -202 -1 -68 13 -106 53 -143 49 -46 111 -54
173 -23 47 24 42 24 47 2 5 -16 13 -18 64 -14 68 5 90 17 73 38 -6 8 -17 14
-24 14 -7 0 -16 7 -19 16 -3 9 -6 126 -6 260 l0 244 -27 -1 c-16 -1 -49 -8
-75 -16z m-20 -239 c20 -14 22 -23 22 -119 l0 -104 -31 -16 c-71 -37 -129 13
-129 112 0 108 71 174 138 127z"/>
<path d="M2005 1157 c-58 -17 -69 -26 -54 -43 6 -8 18 -14 25 -14 11 0 14 -47
16 -247 l3 -248 50 -3 c156 -11 190 -8 233 21 58 38 86 95 87 177 0 76 -22
122 -75 157 -44 30 -121 31 -168 3 l-34 -21 3 113 4 113 -25 2 c-14 1 -43 -4
-65 -10z m229 -278 c22 -25 26 -41 26 -90 0 -100 -33 -153 -95 -153 -63 0 -75
23 -75 140 0 102 0 103 28 118 46 25 87 20 116 -15z"/>
<path d="M2445 1156 c-47 -15 -56 -38 -22 -53 l25 -11 0 -217 0 -216 -24 -15
c-46 -31 -31 -44 51 -45 41 -1 83 -2 92 -3 26 -2 29 34 4 41 -28 7 -32 30 -29
143 l3 95 36 18 c29 14 42 15 65 7 16 -6 32 -17 36 -23 9 -14 11 -199 2 -221
-3 -9 -12 -16 -19 -16 -14 0 -28 -27 -17 -34 4 -2 47 -5 97 -7 75 -3 90 -2 93
12 1 9 -8 20 -23 27 -25 11 -25 13 -25 132 0 89 -4 129 -15 150 -31 61 -119
78 -190 37 l-40 -23 0 115 0 116 -30 2 c-16 1 -48 -4 -70 -11z"/>
<path d="M4323 1124 c-15 -24 -15 -29 -2 -53 10 -18 24 -27 47 -29 41 -4 62
12 62 48 0 58 -75 82 -107 34z"/>
<path d="M1265 968 c-40 -14 -84 -56 -101 -95 -18 -42 -18 -144 0 -187 32 -77
140 -116 229 -82 54 20 106 71 90 87 -8 8 -26 4 -67 -16 -50 -24 -59 -26 -91
-15 -42 14 -75 60 -75 103 l0 29 113 -4 112 -3 3 45 c6 108 -100 177 -213 138z
m94 -54 c12 -15 21 -37 21 -50 0 -23 -4 -24 -58 -24 -32 0 -61 3 -65 6 -10 10
14 64 36 79 30 21 43 19 66 -11z"/>
<path d="M2977 966 c-93 -35 -138 -122 -118 -230 17 -90 85 -146 178 -146 63
0 99 13 136 48 38 35 54 67 62 123 13 85 -24 157 -98 195 -42 22 -116 26 -160
10z m124 -65 c30 -30 34 -50 30 -139 -3 -82 -49 -132 -106 -118 -40 10 -65 60
-65 133 0 71 10 103 41 132 31 29 65 26 100 -8z"/>
<path d="M3395 964 c-78 -40 -115 -101 -115 -187 0 -110 74 -187 180 -187 160
1 254 178 165 312 -46 69 -159 99 -230 62z m129 -57 c62 -62 35 -243 -39 -261
-81 -21 -134 115 -86 220 30 67 82 84 125 41z"/>
<path d="M3739 965 c-26 -7 -51 -15 -57 -19 -16 -9 -4 -33 19 -39 17 -5 19
-15 19 -124 0 -122 -3 -135 -32 -146 -20 -7 -23 -23 -7 -33 13 -8 170 -6 179
2 3 3 -7 15 -23 26 -26 19 -27 22 -27 124 0 98 2 107 25 129 29 30 49 31 75 5
17 -17 20 -33 20 -125 0 -100 -1 -105 -25 -121 -14 -9 -25 -23 -25 -30 0 -11
21 -14 95 -14 79 0 95 3 95 15 0 9 -8 19 -17 22 -29 11 -33 24 -33 124 0 111
14 142 65 142 45 0 55 -24 55 -137 0 -106 -3 -118 -33 -129 -10 -4 -17 -13
-15 -20 3 -8 34 -13 96 -15 80 -2 92 -1 92 14 0 9 -9 18 -20 21 -27 7 -32 33
-27 136 3 48 1 104 -4 125 -17 79 -96 105 -174 58 l-40 -25 -22 21 c-32 30
-94 35 -142 10 -38 -20 -39 -20 -44 -1 -6 22 -6 22 -68 4z"/>
<path d="M4343 963 c-40 -12 -53 -20 -53 -34 0 -12 7 -19 19 -19 24 0 31 -35
31 -152 0 -82 -2 -91 -25 -112 -26 -24 -33 -45 -15 -47 6 0 33 0 60 0 103 0
110 1 110 16 0 8 -9 19 -20 25 -19 10 -20 21 -20 175 0 187 7 176 -87 148z"/>
<path d="M1490 952 c0 -9 10 -22 22 -27 16 -7 41 -54 88 -165 l66 -155 37 -3
c44 -4 48 2 123 170 36 80 66 132 86 150 17 14 27 31 24 37 -4 6 -39 11 -81
11 -57 0 -74 -3 -79 -16 -4 -10 0 -18 13 -21 11 -3 22 -10 24 -16 4 -11 -62
-200 -74 -211 -7 -8 -89 180 -89 205 0 12 7 19 20 19 13 0 20 7 20 20 0 19 -7
20 -100 20 -89 0 -100 -2 -100 -18z"/>
</g>
</svg>
